<?xml version="1.0" standalone="no"?>
<!DOCTYPE svg PUBLIC "-//W3C//DTD SVG 20010904//EN"
 "http://www.w3.org/TR/2001/REC-SVG-20010904/DTD/svg10.dtd">
<svg version="1.0" xmlns="http://www.w3.org/2000/svg"
 width="1407.000000pt" height="1407.000000pt" viewBox="0 0 1407.000000 1407.000000"
 preserveAspectRatio="xMidYMid meet">
<metadata>
Created by potrace 1.11, written by Peter Selinger 2001-2013
</metadata>
<g transform="translate(0.000000,1407.000000) scale(0.100000,-0.100000)"
fill="#000000" stroke="none">
<path d="M3243 13214 c4 -7 -14 -13 -56 -17 -64 -7 -99 -12 -152 -24 -16 -4
-32 -7 -35 -8 -51 -10 -118 -30 -128 -38 -7 -5 -15 -7 -19 -4 -3 4 -12 2 -19
-4 -8 -6 -21 -9 -29 -5 -9 3 -13 2 -10 -4 3 -6 1 -10 -5 -10 -7 0 -50 -18 -96
-39 -46 -22 -84 -37 -84 -33 0 4 -4 2 -8 -4 -4 -5 -36 -26 -72 -46 -36 -20
-89 -53 -118 -73 -29 -20 -58 -33 -64 -29 -6 4 -8 3 -4 -4 3 -6 -8 -21 -26
-33 -18 -13 -50 -39 -71 -59 -21 -19 -43 -34 -48 -33 -5 2 -8 0 -6 -5 1 -4
-35 -44 -80 -90 -45 -45 -80 -82 -78 -82 3 0 -4 -10 -14 -22 -11 -13 -28 -33
-39 -45 -10 -13 -23 -19 -27 -15 -5 4 -5 1 -1 -6 8 -14 -28 -65 -38 -54 -4 3
-4 -1 0 -11 3 -10 1 -17 -5 -17 -6 0 -11 -7 -11 -15 0 -8 -4 -15 -9 -15 -5 0
-13 -9 -16 -20 -4 -11 -11 -17 -17 -14 -7 5 -8 2 -4 -5 5 -7 1 -20 -7 -29 -9
-9 -23 -36 -32 -59 -10 -24 -21 -40 -26 -37 -5 3 -6 -3 -2 -12 5 -13 3 -15 -7
-9 -8 5 -11 4 -6 -3 6 -11 -51 -142 -67 -153 -5 -3 -8 -8 -7 -10 1 -2 -14 -56
-35 -119 -42 -132 -75 -254 -79 -290 -7 -64 -19 -127 -28 -144 -7 -14 -7 -16
2 -11 9 5 9 2 2 -11 -25 -51 -23 -529 4 -674 3 -19 7 -54 8 -77 0 -22 5 -39
10 -36 5 3 7 -6 4 -20 -3 -15 -2 -24 3 -22 6 4 16 -42 25 -110 3 -28 48 -179
70 -238 8 -21 12 -42 9 -47 -3 -4 -2 -10 3 -12 13 -5 52 -109 45 -121 -3 -5
-1 -7 4 -4 6 4 18 -14 28 -41 10 -26 25 -57 32 -69 8 -12 11 -28 7 -34 -4 -8
-3 -9 4 -5 11 6 14 0 11 -20 0 -4 3 -10 8 -13 18 -12 63 -103 56 -115 -3 -6
-3 -8 2 -4 8 8 72 -78 77 -104 2 -7 11 -19 21 -26 9 -7 17 -19 17 -27 0 -7 3
-15 8 -17 4 -1 27 -30 52 -63 25 -33 51 -66 58 -73 7 -8 10 -18 6 -23 -3 -5
-1 -8 3 -7 12 4 102 -93 103 -109 0 -7 3 -12 8 -11 4 1 50 -41 103 -93 52 -52
115 -110 139 -129 24 -19 48 -40 54 -45 36 -35 289 -215 301 -215 3 0 24 -12
48 -27 23 -15 80 -47 127 -71 47 -25 87 -48 90 -51 3 -3 12 -7 20 -9 16 -4
239 -91 255 -100 5 -3 18 -7 30 -8 11 -1 34 -8 50 -15 37 -15 40 -16 66 -18
11 0 17 -5 14 -11 -3 -6 1 -7 9 -4 8 3 56 -4 106 -16 50 -11 120 -24 155 -27
40 -4 62 -10 58 -16 -4 -6 -1 -7 8 -2 16 11 49 14 49 6 0 -13 257 -1 343 15
37 7 34 -3 -5 -20 -53 -22 -103 -78 -145 -161 -23 -44 -60 -159 -68 -209 -3
-17 -10 -53 -15 -81 -5 -27 -12 -66 -15 -85 -3 -19 -8 -42 -10 -50 -2 -8 -7
-37 -10 -65 -4 -27 -9 -59 -10 -70 -2 -11 -6 -40 -9 -65 -4 -25 -9 -56 -11
-70 -2 -14 -7 -59 -11 -100 -3 -41 -8 -82 -9 -91 -2 -8 -6 -60 -10 -115 -4
-54 -9 -107 -11 -117 -1 -10 -4 -47 -5 -83 l-2 -65 -71 -50 c-39 -28 -92 -65
-118 -83 l-46 -32 36 -56 c21 -31 69 -103 108 -159 l71 -104 -3 -285 c-6 -588
-15 -1237 -19 -1295 -1 -33 -6 -116 -9 -185 -4 -69 -9 -150 -11 -180 -9 -104
-17 -195 -20 -220 -2 -14 -6 -59 -10 -100 -3 -41 -8 -82 -10 -90 -2 -8 -7 -40
-10 -70 -3 -30 -8 -66 -10 -80 -3 -14 -7 -41 -10 -60 -6 -41 -33 -184 -40
-220 -3 -14 -8 -44 -11 -67 -6 -41 -5 -43 19 -43 22 0 26 6 32 47 5 27 9 53
11 58 12 45 50 287 64 400 6 50 13 106 15 125 2 19 7 64 10 100 3 36 8 81 10
100 4 32 11 132 20 285 16 266 23 599 27 1263 1 237 6 431 10 430 4 -2 99
-136 210 -298 112 -162 228 -331 259 -375 30 -44 129 -188 219 -319 l163 -239
-3 -56 c-9 -195 1 -282 43 -352 18 -29 57 -73 87 -97 30 -25 60 -54 67 -66 32
-56 8 -133 -142 -456 -101 -217 -147 -346 -162 -455 -14 -100 -8 -248 13 -320
6 -18 34 -85 40 -93 1 -2 11 1 22 7 20 11 20 12 -5 83 -45 130 -37 306 23 484
21 65 63 160 166 384 85 183 116 288 104 351 -7 39 -38 77 -103 127 -77 60
-104 130 -107 282 -3 115 2 114 94 -22 46 -67 88 -124 92 -126 4 -2 8 -8 8
-13 0 -6 5 -15 10 -22 12 -13 1726 -2504 1750 -2543 21 -34 208 -306 250 -364
19 -27 64 -92 100 -144 68 -100 678 -989 730 -1063 l29 -43 90 63 c50 34 205
141 346 237 140 96 324 222 408 280 83 58 208 144 277 191 69 48 175 120 235
162 61 42 181 125 268 184 143 98 235 161 493 339 132 91 328 226 419 288 44
30 127 87 185 127 361 249 912 627 950 653 25 16 47 32 50 35 3 4 13 11 22 16
9 6 48 31 85 57 231 159 459 316 648 445 55 38 136 94 180 124 44 31 161 111
260 179 99 68 200 138 225 155 25 17 153 105 285 195 132 90 242 166 245 169
3 4 52 37 110 76 58 38 107 72 110 75 3 3 55 39 115 79 61 41 118 81 127 90
15 15 5 33 -152 261 -93 135 -172 250 -177 256 -4 5 -12 18 -18 27 -10 16
-459 669 -708 1029 l-129 187 -127 -87 c-70 -48 -454 -312 -854 -587 -400
-275 -805 -554 -900 -619 -94 -65 -235 -162 -312 -215 -77 -52 -179 -122 -227
-156 -48 -33 -196 -134 -328 -225 -248 -170 -774 -532 -800 -550 -8 -6 -94
-64 -190 -130 -96 -66 -197 -136 -225 -155 -184 -130 -432 -295 -442 -295 -7
0 -13 6 -13 14 0 8 -3 16 -7 18 -5 2 -20 21 -35 43 -14 22 -76 112 -137 200
-60 88 -139 203 -175 255 -96 142 -915 1333 -976 1420 -79 114 -248 360 -346
505 -49 72 -91 132 -94 135 -3 3 -13 17 -22 31 -16 25 -16 26 30 56 26 18 88
60 137 94 92 65 230 159 458 316 l129 87 18 -23 c9 -14 23 -48 29 -77 18 -78
56 -146 97 -172 20 -13 42 -21 50 -18 15 6 20 46 5 46 -5 0 -23 12 -40 26 -24
20 -37 46 -57 112 -14 48 -33 98 -41 111 -18 29 -22 25 112 116 55 38 134 92
175 120 41 28 120 82 175 120 55 38 134 92 175 120 41 29 113 78 160 110 47
32 112 77 145 100 53 37 214 147 255 175 8 5 59 40 112 78 54 37 134 92 178
122 45 30 124 84 175 120 292 201 334 230 339 230 2 0 93 -129 202 -287 108
-159 201 -293 206 -300 9 -11 -40 -47 -397 -291 -60 -42 -137 -94 -170 -117
-67 -46 -319 -220 -495 -340 -63 -43 -164 -113 -225 -155 -60 -42 -162 -112
-225 -155 -63 -43 -149 -102 -190 -130 -157 -108 -368 -253 -442 -304 l-77
-52 110 -162 c61 -89 157 -229 214 -312 57 -82 133 -193 169 -245 35 -52 91
-133 123 -180 32 -47 123 -179 202 -295 193 -282 174 -259 202 -237 21 16 513
355 809 558 220 151 1127 774 1170 804 52 37 321 221 541 372 85 58 269 184
409 281 140 96 326 224 413 284 295 202 412 284 420 292 4 4 -46 86 -112 182
-66 96 -161 235 -212 309 -51 74 -120 174 -153 222 -34 48 -115 166 -181 263
-66 96 -220 320 -342 498 -122 177 -265 385 -318 462 -52 77 -151 220 -218
317 -67 98 -203 296 -302 440 -364 530 -411 598 -436 635 -15 21 -93 135 -175
253 -81 118 -148 217 -150 218 -2 3 -133 -84 -319 -213 -33 -23 -134 -93 -225
-155 -91 -62 -194 -134 -230 -159 -243 -168 -265 -181 -300 -181 -46 0 -151
25 -220 52 -70 27 -266 124 -302 150 -37 26 -55 21 -91 -24 -38 -48 -58 -120
-44 -165 15 -48 164 -145 315 -204 l63 -25 -116 -80 c-233 -160 -340 -234
-350 -241 -67 -50 -166 -113 -162 -102 47 117 119 387 131 495 4 27 10 81 15
119 5 39 8 153 6 255 -10 541 -173 1008 -494 1415 -120 153 -355 360 -506 446
-71 40 -217 111 -255 124 -3 1 -12 4 -20 7 -46 17 -112 38 -160 51 -54 15 -80
20 -167 33 -27 4 -40 11 -36 18 4 8 3 8 -6 0 -6 -6 -33 -8 -64 -5 -148 16
-351 0 -526 -41 -198 -46 -452 -165 -587 -274 -32 -27 -43 -31 -53 -21 -10 9
-11 9 -6 -4 14 -37 -15 -26 -51 18 -98 120 -283 291 -431 401 -203 149 -493
294 -693 346 -30 8 -62 17 -70 20 -8 3 -28 8 -45 11 -58 10 -210 34 -259 40
-63 8 -306 8 -313 1 -4 -3 -13 0 -21 7 -9 7 -13 7 -9 1z m1831 -4406 c60 -60
89 -86 161 -143 28 -22 52 -43 55 -46 8 -9 172 -114 217 -139 23 -13 39 -28
36 -33 -3 -6 -1 -7 5 -3 6 4 36 -5 67 -19 31 -14 60 -25 66 -25 6 0 7 -5 3
-12 -4 -7 -3 -8 4 -4 6 4 25 0 42 -9 16 -8 30 -13 30 -11 0 3 14 0 30 -5 29
-11 41 -29 19 -29 -6 0 -16 -6 -23 -12 -7 -7 -65 -49 -130 -93 -64 -44 -152
-105 -195 -135 -68 -48 -309 -213 -676 -464 -55 -38 -126 -87 -158 -109 -31
-22 -59 -38 -62 -36 -7 8 15 93 39 144 13 28 43 84 67 125 102 173 128 252
124 375 -5 125 -57 235 -144 304 -39 31 -71 84 -71 118 0 12 17 26 53 43 88
41 189 106 266 170 40 34 81 63 90 65 9 1 15 10 13 19 -5 29 18 17 72 -36z
m-754 -454 c-7 -20 -26 -51 -42 -70 l-30 -34 48 0 c43 0 117 10 193 25 37 7
123 36 153 51 25 13 28 12 46 -14 50 -72 70 -185 52 -284 -11 -55 -56 -154
-135 -293 -66 -117 -92 -191 -94 -270 -1 -27 -14 -39 -124 -113 -67 -46 -183
-125 -257 -177 -74 -52 -139 -94 -143 -94 -8 -1 -5 71 7 224 6 73 18 190 21
205 1 8 6 44 10 80 6 62 9 84 19 148 3 15 7 47 11 72 3 25 8 56 10 70 3 14 7
36 10 50 3 14 7 36 10 50 2 14 7 39 10 55 12 74 47 194 71 242 34 68 94 139
105 122 6 -10 12 -9 31 3 29 20 35 4 18 -48z"/>
<path d="M2129 12713 c-13 -16 -12 -17 4 -4 16 13 21 21 13 21 -2 0 -10 -8
-17 -17z"/>
<path d="M2029 12673 c-13 -16 -12 -17 4 -4 9 7 17 15 17 17 0 8 -8 3 -21 -13z"/>
<path d="M5150 12389 c0 -5 5 -7 10 -4 6 3 10 8 10 11 0 2 -4 4 -10 4 -5 0
-10 -5 -10 -11z"/>
<path d="M8824 11529 c-9 -16 -100 -54 -159 -67 -114 -26 -197 -34 -358 -36
-144 -1 -142 0 -152 -76 -6 -48 8 -101 36 -141 24 -34 61 -41 217 -44 178 -3
310 23 437 86 52 25 66 38 75 64 16 49 1 110 -47 188 -24 38 -37 45 -49 26z"/>
<path d="M674 10846 c-26 -19 -115 -44 -184 -53 -72 -9 -263 -8 -371 1 l-85 8
-13 -29 c-18 -37 -21 -109 -7 -149 22 -64 45 -79 139 -93 173 -26 329 -19 462
20 86 26 140 55 152 83 15 34 6 103 -23 167 -28 62 -37 68 -70 45z"/>
<path d="M776 10301 c-9 -13 -103 -48 -151 -55 -22 -4 -55 -9 -73 -12 -74 -12
-400 -2 -424 12 -4 3 -15 -10 -24 -28 -24 -46 -23 -136 2 -179 23 -40 51 -55
119 -64 28 -4 61 -9 75 -11 37 -6 215 -5 269 2 42 5 129 24 176 39 18 5 20 1
21 -45 2 -61 35 -115 79 -130 39 -13 238 -19 312 -9 32 4 74 9 93 12 79 10
242 78 271 113 22 26 14 105 -17 169 -38 78 -42 80 -105 46 -95 -51 -239 -78
-429 -80 l-115 -2 -1 53 c-1 34 -11 73 -28 110 -27 59 -41 75 -50 59z"/>
<path d="M1640 10150 c-9 -6 -10 -10 -3 -10 6 0 15 5 18 10 8 12 4 12 -15 0z"/>
<path d="M2475 9070 c3 -5 8 -10 11 -10 2 0 4 5 4 10 0 6 -5 10 -11 10 -5 0
-7 -4 -4 -10z"/>
</g>
</svg>
